<svg width="76" height="80" viewBox="0 0 76 80" fill="none" xmlns="http://www.w3.org/2000/svg">
<path d="M74.1937 49.375L67.475 45.625C68.2562 41.875 68.2562 38.2812 67.475 34.5312L74.1937 30.7812C74.975 30.3125 75.2875 29.375 74.975 28.5938C73.2562 22.9688 70.2875 17.9688 66.5375 13.75C65.9125 13.125 64.975 12.9688 64.1937 13.4375L57.475 17.1875C54.6625 14.8438 51.5375 12.9688 48.1 11.7188V4.0625C48.1 3.28125 47.475 2.5 46.5375 2.34375C40.7562 0.9375 34.975 1.09375 29.5062 2.34375C28.5687 2.5 28.1 3.28125 28.1 4.0625V11.7188C24.5062 12.9688 21.3812 14.8438 18.5687 17.3438L11.85 13.4375C11.0687 12.9688 10.1312 13.125 9.50625 13.75C5.75625 17.9688 2.7875 22.9688 1.06875 28.5938C0.756248 29.375 1.06875 30.3125 1.85 30.7812L8.56875 34.5312C7.94375 38.2812 7.94375 41.875 8.56875 45.625L1.85 49.375C1.06875 49.8438 0.756248 50.7812 1.06875 51.5625C2.7875 57.1875 5.75625 62.1875 9.50625 66.4062C10.1312 67.0312 11.0687 67.1875 11.85 66.7188L18.5687 62.9688C21.3812 65.3125 24.5062 67.1875 28.1 68.4375V76.0938C28.1 76.875 28.725 77.6562 29.5062 77.9688C35.2875 79.2188 41.0687 79.0625 46.5375 77.9688C47.475 77.6562 48.1 76.875 48.1 76.0938V68.4375C51.5375 67.1875 54.6625 65.3125 57.475 62.9688L64.1937 66.7188C64.975 67.1875 65.9125 67.0312 66.5375 66.4062C70.4437 62.1875 73.2562 57.1875 75.1312 51.5625C75.2875 50.7812 74.975 49.8438 74.1937 49.375ZM38.1 52.5C31.0687 52.5 25.6 47.0312 25.6 40C25.6 33.125 31.0687 27.5 38.1 27.5C44.975 27.5 50.6 33.125 50.6 40C50.6 47.0312 44.975 52.5 38.1 52.5Z" fill="#D52349"/>
</svg>
